<svg width="25" height="25" viewBox="0 0 25 25" fill="none" xmlns="http://www.w3.org/2000/svg">
<g id="menu 1">
<path id="Vector" d="M23.0914 17.4776H1.90859C1.54486 17.4776 1.25 18.0369 1.25 18.726C1.25 19.4159 1.54486 19.9744 1.90859 19.9744H23.0914C23.4551 19.9744 23.75 19.4159 23.75 18.726C23.75 18.0369 23.4551 17.4776 23.0914 17.4776Z" fill="white"/>
<path id="Vector_2" d="M23.0914 11.2356H1.90859C1.54486 11.2356 1.25 11.7952 1.25 12.4842C1.25 13.1736 1.54486 13.7324 1.90859 13.7324H23.0914C23.4551 13.7324 23.75 13.1736 23.75 12.4842C23.75 11.7952 23.4551 11.2356 23.0914 11.2356Z" fill="white"/>
<path id="Vector_3" d="M23.0914 4.99359H1.90859C1.54486 4.99359 1.25 5.55291 1.25 6.24199C1.25 6.93146 1.54486 7.49039 1.90859 7.49039H23.0914C23.4551 7.49039 23.75 6.93146 23.75 6.24199C23.75 5.55291 23.4551 4.99359 23.0914 4.99359Z" fill="white"/>
</g>
</svg>
