<svg width="126" height="52" viewBox="0 0 126 52" fill="none" xmlns="http://www.w3.org/2000/svg">
<path d="M48.3108 8.35497C47.4585 7.65149 46.215 7.2983 44.5772 7.2983C43.8264 7.2983 43.1336 7.41699 42.4988 7.65728C41.861 7.89467 41.2813 8.20733 40.7595 8.59236C40.2377 8.9774 39.7942 9.39138 39.429 9.83432C39.3043 9.98486 39.1942 10.1325 39.0869 10.2773V2.73578C39.0869 2.1452 38.8927 1.65305 38.5072 1.25354C38.1216 0.856921 37.6318 0.657166 37.0404 0.657166C36.4491 0.657166 35.9621 0.856921 35.5736 1.25354C35.1881 1.65015 34.9939 2.1452 34.9939 2.73578V23.7795C34.9939 24.3701 35.1881 24.8652 35.5736 25.2618C35.9592 25.6584 36.4491 25.8581 37.0404 25.8581C37.6318 25.8581 38.1187 25.6584 38.5072 25.2618C38.8927 24.8652 39.0869 24.3701 39.0869 23.7795V15.0627C39.0869 14.3129 39.2406 13.6383 39.5478 13.0362C39.8551 12.434 40.316 11.9535 40.9276 11.5887C41.5422 11.2268 42.2785 11.0444 43.1452 11.0444C44.0119 11.0444 44.7134 11.2268 45.1917 11.5887C45.67 11.9535 45.9976 12.434 46.1802 13.0362C46.3628 13.6383 46.4527 14.3129 46.4527 15.0627V23.7795C46.4527 24.3701 46.6469 24.8652 47.0324 25.2618C47.4179 25.6584 47.9078 25.8581 48.4992 25.8581C49.0905 25.8581 49.5775 25.6584 49.9659 25.2618C50.3515 24.8652 50.5457 24.3701 50.5457 23.7795V15.0627C50.5457 13.6326 50.3863 12.3327 50.0674 11.1631C49.7485 9.99354 49.163 9.05846 48.3108 8.35497Z" fill="url(#paint0_linear_70_47)"/>
<path d="M68.9178 9.97039C68.1206 9.14242 67.2075 8.48815 66.1727 8.01337C65.1378 7.5357 64.0421 7.29831 62.8826 7.29831C61.3839 7.29831 59.9606 7.68334 58.6214 8.45631C57.2793 9.22927 56.1952 10.3352 55.3661 11.7769C54.5371 13.2186 54.1226 14.9614 54.1226 17.0024C54.1226 18.7509 54.5023 20.3171 55.2647 21.7009C56.027 23.0847 57.117 24.182 58.5374 24.9868C59.9577 25.7916 61.6332 26.1969 63.5667 26.1969C64.703 26.1969 65.8045 26.0087 66.8742 25.6352C67.9409 25.2618 68.7728 24.8246 69.3642 24.3238C69.999 23.8259 70.3179 23.2671 70.3179 22.6563C70.3179 22.2018 70.1526 21.8052 69.8222 21.4635C69.4917 21.1219 69.0772 20.954 68.5786 20.954C68.2134 20.954 67.8279 21.0554 67.4191 21.2609C67.1698 21.397 66.8916 21.562 66.5843 21.7559C66.277 21.9499 65.8741 22.112 65.3726 22.251C64.874 22.3871 64.2015 22.4565 63.3609 22.4565C62.4507 22.4565 61.5926 22.2365 60.7868 21.7936C59.9809 21.3506 59.32 20.7051 58.8098 19.8539C58.5113 19.356 58.3026 18.7944 58.1779 18.169H69.4309C69.9758 18.169 70.4541 17.9982 70.8628 17.6595C71.2716 17.3179 71.489 16.8779 71.5093 16.3307C71.5093 15.1061 71.2774 13.9481 70.8107 12.8567C70.344 11.7682 69.7149 10.8071 68.9178 9.97908V9.97039ZM59.4389 12.2343C59.8708 11.8029 60.381 11.4961 60.9723 11.3137C61.5636 11.1313 62.1985 11.0415 62.8826 11.0415C63.5667 11.0415 64.2508 11.195 64.8769 11.5019C65.5031 11.8087 66.0248 12.2227 66.4451 12.7438C66.8655 13.2649 67.0974 13.8555 67.1437 14.5155V14.7529H58.2156C58.2707 14.475 58.3344 14.2087 58.4156 13.9713C58.6649 13.2446 59.007 12.6656 59.4389 12.2343Z" fill="url(#paint1_linear_70_47)"/>
<path d="M88.012 21.1567C87.5134 21.1567 87.1366 21.258 86.8873 21.4635C86.638 21.6691 86.3539 21.8602 86.035 22.0425C85.7626 22.1786 85.4205 22.2799 85.0118 22.3494C84.6031 22.4189 84.1132 22.4507 83.545 22.4507C82.5218 22.4507 81.6173 22.2018 80.8347 21.7009C80.052 21.203 79.4375 20.5256 78.994 19.6744C78.5505 18.8233 78.3302 17.8535 78.3302 16.7621C78.3302 15.6706 78.5476 14.669 78.9766 13.8178C79.4085 12.9667 80.0288 12.2922 80.8347 11.7913C81.6405 11.2934 82.6261 11.0415 83.7827 11.0415C84.0088 11.0415 84.3567 11.0821 84.8234 11.1602C85.2901 11.2413 85.635 11.3484 85.864 11.4845C86.1133 11.6205 86.3307 11.7682 86.5104 11.9274C86.6931 12.0866 86.9018 12.2169 87.1424 12.3182C87.3801 12.4196 87.6815 12.4717 88.0468 12.4717C88.5685 12.4717 88.9686 12.2719 89.2411 11.8753C89.5135 11.4787 89.6498 11.0531 89.6498 10.5986C89.6498 9.91828 89.3831 9.33349 88.8497 8.84424C88.3164 8.35498 87.5656 7.97574 86.6003 7.70361C85.635 7.43148 84.5045 7.29541 83.2088 7.29541C81.4579 7.29541 79.9071 7.69781 78.5563 8.50552C77.2025 9.31033 76.1474 10.4249 75.385 11.8435C74.6227 13.262 74.2429 14.9035 74.2429 16.7621C74.2429 18.6207 74.5995 20.1318 75.3184 21.562C76.0343 22.9921 77.0518 24.1212 78.3707 24.9491C79.6897 25.7771 81.2463 26.1911 83.0406 26.1911C84.2465 26.1911 85.3654 26.0492 86.3974 25.7655C87.4322 25.4818 88.2671 25.1084 88.9019 24.6423C89.5396 24.1762 89.8556 23.6608 89.8556 23.0934C89.8556 22.526 89.6962 22.0889 89.3773 21.7154C89.0584 21.342 88.6033 21.1538 88.0149 21.1538L88.012 21.1567Z" fill="url(#paint2_linear_70_47)"/>
<path d="M102.033 15.8009L107.173 11.0763C107.718 10.5986 107.99 10.0891 107.99 9.54482C107.99 9.13662 107.796 8.71685 107.41 8.28549C107.025 7.85414 106.57 7.63991 106.048 7.63991C105.48 7.63991 104.978 7.85703 104.549 8.28549L97.2532 15.3174V2.73578C97.2532 2.1452 97.059 1.65305 96.6734 1.25354C96.285 0.856921 95.798 0.657166 95.2067 0.657166C94.6153 0.657166 94.1283 0.856921 93.7399 1.25354C93.3544 1.65015 93.1602 2.1452 93.1602 2.73578V23.7795C93.1602 24.3701 93.3544 24.8652 93.7399 25.2618C94.1254 25.6584 94.6153 25.8581 95.2067 25.8581C95.798 25.8581 96.285 25.6584 96.6734 25.2618C97.059 24.8652 97.2532 24.3701 97.2532 23.7795V20.1984L98.9316 18.6554L105.062 25.1402C105.471 25.5947 105.97 25.8205 106.561 25.8205C107.016 25.8205 107.477 25.6323 107.941 25.2589C108.408 24.8854 108.639 24.402 108.639 23.8114C108.639 23.2208 108.422 22.7344 107.993 22.2799L102.036 15.8009H102.033Z" fill="url(#paint3_linear_70_47)"/>
<path d="M43.4436 33.5907C43.7828 33.2983 43.9567 32.9017 43.9625 32.4009C43.9683 31.9 43.8031 31.4976 43.4726 31.185C43.1393 30.8752 42.7218 30.716 42.2233 30.7102L29.4253 30.5712C28.9267 30.5654 28.5064 30.7102 28.1672 31.0026C27.8281 31.2979 27.6541 31.6945 27.6483 32.1924C27.6425 32.6904 27.8078 33.0957 28.1382 33.4083C28.4716 33.7181 28.8861 33.8773 29.3876 33.8831L33.9125 33.9323L33.7473 49.0182C33.7415 49.519 33.9096 49.9359 34.2517 50.2775C34.5938 50.6162 35.0344 50.7899 35.5706 50.7957C36.1069 50.8015 36.5852 50.6394 36.9446 50.3064C37.3041 49.9735 37.4867 49.5595 37.4925 49.0587L37.6577 33.9728L42.1827 34.0221C42.6813 34.0278 43.1016 33.8831 43.4407 33.5907H43.4436Z" fill="url(#paint4_linear_70_47)"/>
<path d="M56.4099 35.3306C55.9084 35.3248 55.4938 35.4898 55.1663 35.8198C54.8358 36.1528 54.6677 36.5667 54.6619 37.0676V37.111C54.4938 36.9518 54.3112 36.7897 54.1053 36.6304C53.601 36.2425 53.0038 35.9183 52.3139 35.6606C51.624 35.403 50.8674 35.2698 50.0413 35.2611C48.7542 35.2466 47.5774 35.5767 46.5135 36.2454C45.4497 36.9142 44.5974 37.8463 43.9597 39.0391C43.322 40.2318 42.9944 41.6156 42.977 43.1876C42.9596 44.7596 43.2582 46.1231 43.8699 47.3304C44.4815 48.5376 45.3221 49.4871 46.3889 50.179C47.4585 50.8709 48.6557 51.227 49.9804 51.2415C50.7109 51.2502 51.3892 51.1373 52.0153 50.9028C52.6415 50.6712 53.1893 50.3817 53.6531 50.043C53.9981 49.7911 54.2909 49.5335 54.5286 49.2758C54.5286 49.7622 54.6851 50.1733 55.004 50.5033C55.3257 50.842 55.7373 51.0157 56.2388 51.0215C56.7403 51.0273 57.1519 50.8652 57.4824 50.5322C57.8128 50.1993 57.981 49.7853 57.9868 49.2845L58.1201 37.1052C58.1259 36.587 57.9665 36.1643 57.6447 35.8343C57.3201 35.5043 56.9113 35.3364 56.4099 35.3306ZM54.1749 45.7584C53.8097 46.485 53.3111 47.0553 52.6705 47.4693C52.0327 47.8862 51.2878 48.0889 50.4442 48.0773C49.6007 48.0657 48.8905 47.8486 48.2615 47.4201C47.6324 46.9916 47.1425 46.4098 46.7947 45.6773C46.4468 44.9449 46.2787 44.1256 46.2874 43.2253C46.2961 42.3249 46.4845 41.4796 46.8469 40.7558C47.2092 40.0292 47.7107 39.4589 48.3513 39.0449C48.989 38.6309 49.7224 38.4253 50.5486 38.4369C51.3747 38.4485 52.1313 38.6656 52.7603 39.0941C53.3893 39.5225 53.8792 40.1044 54.2271 40.8369C54.5749 41.5693 54.7431 42.3973 54.7344 43.3179C54.7257 44.2385 54.5373 45.0346 54.1749 45.7584Z" fill="url(#paint5_linear_70_47)"/>
<path d="M81.4288 32.0042C80.5592 31.4195 79.6258 31.1213 78.6286 31.1097L72.0571 31.0373C71.5556 31.0315 71.1382 31.1965 70.7991 31.5266C70.4599 31.8595 70.286 32.2735 70.2802 32.7743L70.0976 49.4148C70.0918 49.9156 70.2396 50.3325 70.544 50.6712C70.8484 51.0099 71.2397 51.1836 71.7209 51.1865C72.2021 51.1894 72.6253 51.0273 72.9383 50.6973C73.2485 50.3643 73.4079 49.9504 73.4137 49.4495L73.4746 44.0069L78.4895 44.0619C79.4895 44.0735 80.4287 43.7898 81.3099 43.2137C82.1912 42.6376 82.9072 41.8646 83.455 40.8919C84.0029 39.9192 84.2841 38.8364 84.2986 37.6466C84.313 36.4568 84.0551 35.3393 83.5275 34.355C82.9999 33.3707 82.3013 32.5861 81.4346 31.9985L81.4288 32.0042ZM80.4722 39.1491C80.2374 39.6355 79.9446 40.0321 79.5939 40.3332C79.2431 40.6371 78.8866 40.7848 78.5213 40.7819L73.5065 40.7269L73.5761 34.3637L78.5909 34.4187C78.9562 34.4216 79.3098 34.575 79.6519 34.8761C79.9939 35.1772 80.278 35.5709 80.5041 36.0515C80.7302 36.5349 80.8403 37.0531 80.8316 37.609C80.823 38.1648 80.7041 38.6599 80.4693 39.1462L80.4722 39.1491Z" fill="url(#paint6_linear_70_47)"/>
<path d="M99.8244 35.8054C99.3229 35.7996 98.9084 35.9646 98.5808 36.2946C98.2504 36.6276 98.0822 37.0415 98.0765 37.5424V37.5858C97.9083 37.4266 97.7257 37.2645 97.5199 37.1052C97.0155 36.7173 96.4184 36.3931 95.7285 36.1354C95.0386 35.8778 94.282 35.7446 93.4558 35.7359C92.1688 35.7214 90.9919 36.0515 89.9281 36.7202C88.8642 37.3889 88.012 38.3211 87.3743 39.5139C86.7365 40.7066 86.409 42.0904 86.3916 43.6624C86.3742 45.217 86.6728 46.5979 87.2844 47.8052C87.896 49.0124 88.7367 49.9619 89.8034 50.6538C90.8731 51.3457 92.0702 51.7018 93.395 51.7163C94.1255 51.725 94.8038 51.6121 95.4299 51.3776C96.056 51.146 96.6039 50.8565 97.0677 50.5178C97.4126 50.2659 97.7054 50.0083 97.9431 49.7506C97.9431 50.237 98.0996 50.648 98.4185 50.9781C98.7403 51.3168 99.1519 51.4905 99.6534 51.4963C100.155 51.5021 100.566 51.34 100.897 51.007C101.227 50.6741 101.396 50.2601 101.401 49.7593L101.535 37.58C101.54 37.0618 101.381 36.6391 101.059 36.3091C100.735 35.9791 100.326 35.8112 99.8244 35.8054ZM97.5895 46.2332C97.2242 46.9598 96.7256 47.5301 96.085 47.9441C95.4473 48.361 94.7023 48.5636 93.8588 48.5521C93.0152 48.5405 92.305 48.3234 91.676 47.8949C91.047 47.4664 90.5571 46.8845 90.2092 46.1521C89.8614 45.4197 89.6933 44.6004 89.702 43.7C89.7107 42.7997 89.8991 41.9544 90.2614 41.2306C90.6238 40.504 91.1252 39.9336 91.7659 39.5197C92.4036 39.1057 93.137 38.9001 93.9631 38.9117C94.7893 38.9233 95.5458 39.1404 96.1749 39.5689C96.8039 39.9973 97.2938 40.5792 97.6416 41.3117C97.9895 42.0441 98.1576 42.8721 98.1489 43.7927C98.1402 44.7133 97.9518 45.5094 97.5895 46.2332Z" fill="url(#paint7_linear_70_47)"/>
<path d="M106.825 36.1701C106.323 36.1643 105.909 36.3294 105.581 36.6594C105.251 36.9923 105.083 37.4063 105.077 37.9071L104.946 49.7969C104.941 50.2977 105.1 50.7146 105.422 51.0533C105.744 51.392 106.155 51.5657 106.657 51.5715C107.158 51.5773 107.57 51.4152 107.9 51.0823C108.231 50.7494 108.399 50.3354 108.405 49.8345L108.535 37.9448C108.541 37.4468 108.381 37.0271 108.06 36.6883C107.738 36.3496 107.326 36.1759 106.825 36.1701Z" fill="url(#paint8_linear_70_47)"/>
<path d="M106.767 30.5452C106.152 30.5452 105.694 30.6465 105.399 30.8462C105.1 31.0489 104.952 31.4281 104.952 31.984V32.5311C104.952 33.0696 105.085 33.4431 105.355 33.6544C105.625 33.8657 106.086 33.9699 106.738 33.9699C107.39 33.9699 107.862 33.8686 108.149 33.6689C108.436 33.4662 108.581 33.0899 108.581 32.5311V31.984C108.581 31.4455 108.445 31.0721 108.178 30.8607C107.909 30.6494 107.439 30.5452 106.767 30.5452Z" fill="url(#paint9_linear_70_47)"/>
<path d="M125.441 44.8407C125.788 44.557 125.977 44.1835 126 43.7232C126.012 42.6868 125.826 41.7054 125.441 40.779C125.058 39.8526 124.533 39.0362 123.866 38.3298C123.203 37.6205 122.435 37.0618 121.565 36.6478C120.695 36.2338 119.771 36.0225 118.791 36.0138C117.521 35.9993 116.318 36.312 115.176 36.9547C114.034 37.5945 113.106 38.5209 112.393 39.731C111.677 40.9411 111.312 42.4118 111.292 44.1372C111.274 45.6165 111.582 46.9424 112.214 48.1207C112.845 49.299 113.756 50.2341 114.95 50.9289C116.144 51.6237 117.556 51.9797 119.191 51.9971C120.15 52.0087 121.084 51.8582 121.991 51.5513C122.898 51.2444 123.603 50.8825 124.107 50.4657C124.649 50.0488 124.925 49.5827 124.93 49.0645C124.933 48.6794 124.8 48.3436 124.525 48.0512C124.249 47.7617 123.898 47.6112 123.478 47.6083C123.171 47.6054 122.843 47.6865 122.495 47.8573C122.284 47.9702 122.046 48.1062 121.785 48.2684C121.524 48.4276 121.182 48.5636 120.756 48.6737C120.333 48.7837 119.765 48.8358 119.055 48.8271C118.286 48.8184 117.562 48.6244 116.883 48.2423C116.205 47.8602 115.654 47.3072 115.228 46.5835C114.979 46.1608 114.808 45.6831 114.709 45.1533L124.223 45.2576C124.684 45.2633 125.09 45.1244 125.438 44.8378L125.441 44.8407ZM115.834 40.1566C116.202 39.7947 116.637 39.5428 117.138 39.3923C117.64 39.2446 118.179 39.1723 118.756 39.1809C119.333 39.1896 119.913 39.3228 120.437 39.5891C120.962 39.8555 121.4 40.2087 121.753 40.6545C122.104 41.1003 122.295 41.6012 122.327 42.157V42.3597L114.776 42.2757C114.825 42.0412 114.88 41.8154 114.953 41.6156C115.17 41.0048 115.463 40.5184 115.834 40.1566Z" fill="url(#paint10_linear_70_47)"/>
<path d="M16.8418 27.6038C9.22097 27.6038 3.02344 21.4114 3.02344 13.8034C3.02344 6.1953 9.22097 0 16.8418 0C22.274 0 27.2222 3.19898 29.4484 8.14653C29.9209 9.19452 29.4484 10.4249 28.402 10.8968C27.3527 11.3658 26.1207 10.8968 25.6482 9.85169C24.0945 6.39506 20.6362 4.16012 16.8418 4.16012C11.5197 4.16012 7.18894 8.48525 7.18894 13.8005C7.18894 19.1157 11.5197 23.4408 16.8418 23.4408C20.6073 23.4408 24.051 21.2319 25.6192 17.8129C26.0975 16.7678 27.3353 16.3075 28.3788 16.7881C29.4253 17.2658 29.8862 18.5019 29.405 19.547C27.1613 24.4425 22.2306 27.6038 16.8389 27.6038H16.8418Z" fill="url(#paint11_linear_70_47)"/>
<path d="M16.8418 27.6038C9.22097 27.6038 3.02344 21.4114 3.02344 13.8034C3.02344 6.1953 9.22097 0 16.8418 0C17.5839 0 18.3346 0.060795 19.068 0.17949C20.2043 0.36477 20.9725 1.43303 20.7899 2.56787C20.6073 3.70271 19.5347 4.46988 18.3984 4.2875C17.8853 4.20354 17.3607 4.16301 16.8418 4.16301C11.5197 4.16301 7.18894 8.48814 7.18894 13.8034C7.18894 19.1186 11.5197 23.4437 16.8418 23.4437C18.1433 23.4437 19.4101 23.1861 20.6073 22.6794C21.6653 22.2307 22.8886 22.7258 23.3379 23.7824C23.7872 24.8391 23.2915 26.0608 22.2335 26.5095C20.5203 27.2333 18.7057 27.6038 16.8447 27.6038H16.8418Z" fill="url(#paint12_linear_70_47)"/>
<path d="M12.9952 22.6447C9.46744 21.1132 7.18902 17.6421 7.18902 13.8034C7.18902 11.2673 8.1659 8.87318 9.94283 7.06091C10.7487 6.23873 10.7342 4.9215 9.91095 4.11959C9.0877 3.31478 7.76877 3.33215 6.96581 4.15143C4.42361 6.74536 3.02641 10.173 3.02641 13.8034C3.02641 17.6421 4.61783 21.2204 7.29337 23.7766L0.356663 34.0568C-0.28686 35.0093 -0.0346687 36.3033 0.921919 36.9431C1.27847 37.1834 1.68429 37.2992 2.08432 37.2992C2.75393 37.2992 3.41195 36.9779 3.81487 36.3815L10.7052 26.1621C10.9139 26.2663 11.1226 26.3648 11.34 26.4574C11.6096 26.5761 11.8908 26.6311 12.1691 26.6311C12.972 26.6311 13.7402 26.1621 14.0793 25.3776C14.5374 24.3238 14.0533 23.0992 12.9981 22.6418L12.9952 22.6447Z" fill="url(#paint13_linear_70_47)"/>
<path d="M6.71931 21.8109C6.00332 21.8109 5.30762 21.4433 4.91919 20.7832C3.67852 18.667 3.02051 16.2554 3.02051 13.8034C3.02051 12.3588 3.24661 10.9315 3.69012 9.5564C4.04377 8.46209 5.21776 7.86282 6.31349 8.21601C7.40922 8.5692 8.00926 9.74168 7.65561 10.836C7.34544 11.7971 7.18601 12.793 7.18601 13.8034C7.18601 15.5172 7.64402 17.2021 8.51074 18.6785C9.09339 19.6686 8.76003 20.9453 7.76866 21.5243C7.4382 21.7183 7.07586 21.8109 6.71641 21.8109H6.71931Z" fill="url(#paint14_linear_70_47)"/>
<path d="M19.8174 13.096C18.6289 13.096 17.6665 12.1348 17.6665 10.9479C17.6665 10.146 18.1071 9.44828 18.7564 9.08062C18.252 8.90402 17.7158 8.7998 17.1505 8.7998C14.4924 8.7998 12.3357 10.9537 12.3357 13.6084C12.3357 16.2631 14.4924 18.417 17.1505 18.417C19.8087 18.417 21.9653 16.2631 21.9653 13.6084C21.9653 13.0439 21.8639 12.5054 21.6842 12.0046C21.316 12.6559 20.6174 13.0931 19.8145 13.0931L19.8174 13.096Z" fill="url(#paint15_linear_70_47)"/>
<defs>
<linearGradient id="paint0_linear_70_47" x1="34.162" y1="13.2562" x2="109.086" y2="13.2562" gradientUnits="userSpaceOnUse">
<stop stop-color="#F4D100"/>
<stop offset="0.38" stop-color="#7DEEAA"/>
<stop offset="0.69" stop-color="#45F7DD"/>
<stop offset="1" stop-color="#47DAE4"/>
</linearGradient>
<linearGradient id="paint1_linear_70_47" x1="34.1618" y1="16.7476" x2="109.086" y2="16.7476" gradientUnits="userSpaceOnUse">
<stop stop-color="#F4D100"/>
<stop offset="0.38" stop-color="#7DEEAA"/>
<stop offset="0.69" stop-color="#45F7DD"/>
<stop offset="1" stop-color="#47DAE4"/>
</linearGradient>
<linearGradient id="paint2_linear_70_47" x1="34.1619" y1="16.7476" x2="109.086" y2="16.7476" gradientUnits="userSpaceOnUse">
<stop stop-color="#F4D100"/>
<stop offset="0.38" stop-color="#7DEEAA"/>
<stop offset="0.69" stop-color="#45F7DD"/>
<stop offset="1" stop-color="#47DAE4"/>
</linearGradient>
<linearGradient id="paint3_linear_70_47" x1="34.1619" y1="6.97952e-07" x2="109.086" y2="6.97952e-07" gradientUnits="userSpaceOnUse">
<stop stop-color="#F4D100"/>
<stop offset="0.38" stop-color="#7DEEAA"/>
<stop offset="0.69" stop-color="#45F7DD"/>
<stop offset="1" stop-color="#47DAE4"/>
</linearGradient>
<linearGradient id="paint4_linear_70_47" x1="27.7411" y1="40.6834" x2="128.084" y2="40.6834" gradientUnits="userSpaceOnUse">
<stop stop-color="#47DAE4"/>
<stop offset="1" stop-color="#25699B"/>
</linearGradient>
<linearGradient id="paint5_linear_70_47" x1="27.7412" y1="43.2513" x2="128.084" y2="43.2513" gradientUnits="userSpaceOnUse">
<stop stop-color="#47DAE4"/>
<stop offset="1" stop-color="#25699B"/>
</linearGradient>
<linearGradient id="paint6_linear_70_47" x1="27.741" y1="41.1148" x2="128.084" y2="41.1148" gradientUnits="userSpaceOnUse">
<stop stop-color="#47DAE4"/>
<stop offset="1" stop-color="#25699B"/>
</linearGradient>
<linearGradient id="paint7_linear_70_47" x1="27.7412" y1="43.7261" x2="128.084" y2="43.7261" gradientUnits="userSpaceOnUse">
<stop stop-color="#47DAE4"/>
<stop offset="1" stop-color="#25699B"/>
</linearGradient>
<linearGradient id="paint8_linear_70_47" x1="27.7411" y1="43.8708" x2="128.084" y2="43.8708" gradientUnits="userSpaceOnUse">
<stop stop-color="#47DAE4"/>
<stop offset="1" stop-color="#25699B"/>
</linearGradient>
<linearGradient id="paint9_linear_70_47" x1="27.7411" y1="32.2561" x2="128.084" y2="32.2561" gradientUnits="userSpaceOnUse">
<stop stop-color="#47DAE4"/>
<stop offset="1" stop-color="#25699B"/>
</linearGradient>
<linearGradient id="paint10_linear_70_47" x1="27.741" y1="44.0069" x2="128.084" y2="44.0069" gradientUnits="userSpaceOnUse">
<stop stop-color="#47DAE4"/>
<stop offset="1" stop-color="#25699B"/>
</linearGradient>
<linearGradient id="paint11_linear_70_47" x1="28.202" y1="12.3819" x2="17.7553" y2="13.6909" gradientUnits="userSpaceOnUse">
<stop stop-color="#F4D100"/>
<stop offset="0.7" stop-color="#D1F645"/>
</linearGradient>
<linearGradient id="paint12_linear_70_47" x1="4.57717" y1="13.8005" x2="16.1635" y2="13.8005" gradientUnits="userSpaceOnUse">
<stop stop-color="#45F7DD"/>
<stop offset="1" stop-color="#7DEEAA"/>
</linearGradient>
<linearGradient id="paint13_linear_70_47" x1="2.49884" y1="21.5041" x2="16.1414" y2="16.1102" gradientUnits="userSpaceOnUse">
<stop offset="0.25" stop-color="#47DAE4"/>
<stop offset="1" stop-color="#45F7DD"/>
</linearGradient>
<linearGradient id="paint14_linear_70_47" x1="2.45235" y1="15.0627" x2="15.5286" y2="14.7086" gradientUnits="userSpaceOnUse">
<stop offset="0.14" stop-color="#47DAE4"/>
<stop offset="0.84" stop-color="#25699B"/>
</linearGradient>
<linearGradient id="paint15_linear_70_47" x1="4.45689" y1="13.7242" x2="19.5275" y2="13.5878" gradientUnits="userSpaceOnUse">
<stop stop-color="#47DAE4"/>
<stop offset="1" stop-color="#25699B"/>
</linearGradient>
</defs>
</svg>
