<svg width="128" height="32" viewBox="0 0 128 32" fill="none" xmlns="http://www.w3.org/2000/svg">
<path d="M16 6.49001L19.09 12.75L26 13.76L21 18.63L22.18 25.51L16 22.26L9.82 25.51L11 18.63L6 13.76L12.91 12.75L16 6.49001Z" fill="#FFCD00" stroke="#FFCD00" stroke-width="1.2" stroke-linecap="round" stroke-linejoin="round"/>
<path d="M48 6.49001L51.09 12.75L58 13.76L53 18.63L54.18 25.51L48 22.26L41.82 25.51L43 18.63L38 13.76L44.91 12.75L48 6.49001Z" fill="#FFCD00" stroke="#FFCD00" stroke-width="1.2" stroke-linecap="round" stroke-linejoin="round"/>
<path d="M80 6.49001L83.09 12.75L90 13.76L85 18.63L86.18 25.51L80 22.26L73.82 25.51L75 18.63L70 13.76L76.91 12.75L80 6.49001Z" fill="#FFCD00" stroke="#FFCD00" stroke-width="1.2" stroke-linecap="round" stroke-linejoin="round"/>
<path d="M112 6.49001L115.09 12.75L122 13.76L117 18.63L118.18 25.51L112 22.26L105.82 25.51L107 18.63L102 13.76L108.91 12.75L112 6.49001Z" fill="#FFCD00" stroke="#FFCD00" stroke-width="1.2" stroke-linecap="round" stroke-linejoin="round"/>
</svg>
